<svg width="144" height="60" viewBox="0 0 144 60" fill="none" xmlns="http://www.w3.org/2000/svg">
<mask id="path-1-inside-1" fill="white">
<path fill-rule="evenodd" clip-rule="evenodd" d="M4 0C1.79086 0 0 1.79086 0 4V56C0 58.2091 1.79086 60 4 60H144C127.431 60 114 46.5685 114 30C114 13.4315 127.431 0 144 0H4Z"/>
</mask>
<path fill-rule="evenodd" clip-rule="evenodd" d="M4 0C1.79086 0 0 1.79086 0 4V56C0 58.2091 1.79086 60 4 60H144C127.431 60 114 46.5685 114 30C114 13.4315 127.431 0 144 0H4Z" fill="#008BC5"/>
<path d="M1 4C1 2.34315 2.34315 1 4 1V-1C1.23858 -1 -1 1.23858 -1 4H1ZM1 56V4H-1V56H1ZM4 59C2.34315 59 1 57.6569 1 56H-1C-1 58.7614 1.23858 61 4 61V59ZM144 59H4V61H144V59ZM144 59C127.984 59 115 46.0163 115 30H113C113 47.1208 126.879 61 144 61V59ZM115 30C115 13.9837 127.984 1 144 1V-1C126.879 -1 113 12.8792 113 30H115ZM4 1H144V-1H4V1Z" fill="url(#paint0_linear)" mask="url(#path-1-inside-1)"/>
<mask id="mask0" mask-type="alpha" maskUnits="userSpaceOnUse" x="0" y="0" width="144" height="60">
<rect width="144" height="60" rx="4" fill="#008BC5"/>
</mask>
<g mask="url(#mask0)">
<rect width="204.076" height="25.0608" transform="matrix(0.826335 0.563179 -0.443491 0.896279 6.17929 -22)" fill="url(#paint1_linear)"/>
<rect width="204.076" height="0.737492" transform="matrix(0.826335 0.563179 -0.443491 0.896279 13.2856 -22.4333)" fill="url(#paint2_linear)"/>
<rect width="204.076" height="1.36982" transform="matrix(0.826335 0.563179 -0.443491 0.896279 13.5661 -20)" fill="url(#paint3_linear)"/>
</g>
<defs>
<linearGradient id="paint0_linear" x1="72" y1="12" x2="72" y2="80" gradientUnits="userSpaceOnUse">
<stop stop-color="#86AEFF"/>
<stop offset="1" stop-color="#86AEFF" stop-opacity="0"/>
</linearGradient>
<linearGradient id="paint1_linear" x1="196.541" y1="10.2217" x2="20.2676" y2="5.13607" gradientUnits="userSpaceOnUse">
<stop stop-color="white" stop-opacity="0.17"/>
<stop offset="1" stop-color="white" stop-opacity="0.1"/>
</linearGradient>
<linearGradient id="paint2_linear" x1="196.541" y1="0.300805" x2="106.583" y2="-87.8918" gradientUnits="userSpaceOnUse">
<stop stop-color="white" stop-opacity="0.17"/>
<stop offset="1" stop-color="white" stop-opacity="0.1"/>
</linearGradient>
<linearGradient id="paint3_linear" x1="196.541" y1="0.558716" x2="58.5613" y2="-72.2697" gradientUnits="userSpaceOnUse">
<stop stop-color="white" stop-opacity="0.17"/>
<stop offset="1" stop-color="white" stop-opacity="0.1"/>
</linearGradient>
</defs>
</svg>
