<svg width="144" height="60" viewBox="0 0 144 60" fill="none" xmlns="http://www.w3.org/2000/svg">
<mask id="path-1-inside-1" fill="white">
<path fill-rule="evenodd" clip-rule="evenodd" d="M0.00278282 59.931C16.5713 59.931 30.0028 46.4996 30.0028 29.931C30.0028 14.0516 17.6654 1.05378 2.0532 0H140C142.209 0 144 1.79086 144 4V56C144 58.2091 142.209 60 140 60H-0.000152588V59.931C0.000825871 59.931 0.00180434 59.931 0.00278282 59.931Z"/>
</mask>
<path fill-rule="evenodd" clip-rule="evenodd" d="M0.00278282 59.931C16.5713 59.931 30.0028 46.4996 30.0028 29.931C30.0028 14.0516 17.6654 1.05378 2.0532 0H140C142.209 0 144 1.79086 144 4V56C144 58.2091 142.209 60 140 60H-0.000152588V59.931C0.000825871 59.931 0.00180434 59.931 0.00278282 59.931Z" fill="#E01445"/>
<path d="M2.0532 0V-1L1.98585 0.99773L2.0532 0ZM-0.000152588 60H-1.00015V61H-0.000152588V60ZM-0.000152588 59.931V58.931H-1.00015V59.931H-0.000152588ZM29.0028 29.931C29.0028 45.9473 16.019 58.931 0.00278282 58.931V60.931C17.1236 60.931 31.0028 47.0519 31.0028 29.931H29.0028ZM1.98585 0.99773C17.0767 2.01632 29.0028 14.5814 29.0028 29.931H31.0028C31.0028 13.5219 18.2541 0.0912456 2.12054 -0.99773L1.98585 0.99773ZM2.0532 1H140V-1H2.0532V1ZM140 1C141.657 1 143 2.34315 143 4H145C145 1.23858 142.761 -1 140 -1V1ZM143 4V56H145V4H143ZM143 56C143 57.6569 141.657 59 140 59V61C142.761 61 145 58.7614 145 56H143ZM140 59H-0.000152588V61H140V59ZM0.999847 60V59.931H-1.00015V60H0.999847ZM0.00278282 58.931C0.00278091 58.931 0.002779 58.931 0.00277709 58.931C0.00277518 58.931 0.00277327 58.931 0.00277135 58.931C0.00276944 58.931 0.00276753 58.931 0.00276562 58.931C0.00276371 58.931 0.0027618 58.931 0.00275989 58.931C0.00275798 58.931 0.00275607 58.931 0.00275416 58.931C0.00275224 58.931 0.00275033 58.931 0.00274842 58.931C0.00274651 58.931 0.0027446 58.931 0.00274269 58.931C0.00274078 58.931 0.00273887 58.931 0.00273696 58.931C0.00273504 58.931 0.00273313 58.931 0.00273122 58.931C0.00272931 58.931 0.0027274 58.931 0.00272549 58.931C0.00272358 58.931 0.00272167 58.931 0.00271976 58.931C0.00271784 58.931 0.00271593 58.931 0.00271402 58.931C0.00271211 58.931 0.0027102 58.931 0.00270829 58.931C0.00270638 58.931 0.00270447 58.931 0.00270256 58.931C0.00270064 58.931 0.00269873 58.931 0.00269682 58.931C0.00269491 58.931 0.002693 58.931 0.00269109 58.931C0.00268918 58.931 0.00268727 58.931 0.00268536 58.931C0.00268344 58.931 0.00268153 58.931 0.00267962 58.931C0.00267771 58.931 0.0026758 58.931 0.00267389 58.931C0.00267198 58.931 0.00267007 58.931 0.00266816 58.931C0.00266624 58.931 0.00266433 58.931 0.00266242 58.931C0.00266051 58.931 0.0026586 58.931 0.00265669 58.931C0.00265478 58.931 0.00265287 58.931 0.00265096 58.931C0.00264905 58.931 0.00264713 58.931 0.00264522 58.931C0.00264331 58.931 0.0026414 58.931 0.00263949 58.931C0.00263758 58.931 0.00263567 58.931 0.00263376 58.931C0.00263185 58.931 0.00262993 58.931 0.00262802 58.931C0.00262611 58.931 0.0026242 58.931 0.00262229 58.931C0.00262038 58.931 0.00261847 58.931 0.00261656 58.931C0.00261465 58.931 0.00261273 58.931 0.00261082 58.931C0.00260891 58.931 0.002607 58.931 0.00260509 58.931C0.00260318 58.931 0.00260127 58.931 0.00259936 58.931C0.00259745 58.931 0.00259553 58.931 0.00259362 58.931C0.00259171 58.931 0.0025898 58.931 0.00258789 58.931C0.00258598 58.931 0.00258407 58.931 0.00258216 58.931C0.00258025 58.931 0.00257833 58.931 0.00257642 58.931C0.00257451 58.931 0.0025726 58.931 0.00257069 58.931C0.00256878 58.931 0.00256687 58.931 0.00256496 58.931C0.00256305 58.931 0.00256113 58.931 0.00255922 58.931C0.00255731 58.931 0.0025554 58.931 0.00255349 58.931C0.00255158 58.931 0.00254967 58.931 0.00254776 58.931C0.00254585 58.931 0.00254393 58.931 0.00254202 58.931C0.00254011 58.931 0.0025382 58.931 0.00253629 58.931C0.00253438 58.931 0.00253247 58.931 0.00253056 58.931C0.00252865 58.931 0.00252674 58.931 0.00252482 58.931C0.00252291 58.931 0.002521 58.931 0.00251909 58.931C0.00251718 58.931 0.00251527 58.931 0.00251336 58.931C0.00251145 58.931 0.00250954 58.931 0.00250762 58.931C0.00250571 58.931 0.0025038 58.931 0.00250189 58.931C0.00249998 58.931 0.00249807 58.931 0.00249616 58.931C0.00249425 58.931 0.00249234 58.931 0.00249042 58.931C0.00248851 58.931 0.0024866 58.931 0.00248469 58.931C0.00248278 58.931 0.00248087 58.931 0.00247896 58.931C0.00247705 58.931 0.00247514 58.931 0.00247322 58.931C0.00247131 58.931 0.0024694 58.931 0.00246749 58.931C0.00246558 58.931 0.00246367 58.931 0.00246176 58.931C0.00245985 58.931 0.00245794 58.931 0.00245602 58.931C0.00245411 58.931 0.0024522 58.931 0.00245029 58.931C0.00244838 58.931 0.00244647 58.931 0.00244456 58.931C0.00244265 58.931 0.00244074 58.931 0.00243882 58.931C0.00243691 58.931 0.002435 58.931 0.00243309 58.931C0.00243118 58.931 0.00242927 58.931 0.00242736 58.931C0.00242545 58.931 0.00242354 58.931 0.00242163 58.931C0.00241971 58.931 0.0024178 58.931 0.00241589 58.931C0.00241398 58.931 0.00241207 58.931 0.00241016 58.931C0.00240825 58.931 0.00240634 58.931 0.00240443 58.931C0.00240251 58.931 0.0024006 58.931 0.00239869 58.931C0.00239678 58.931 0.00239487 58.931 0.00239296 58.931C0.00239105 58.931 0.00238914 58.931 0.00238723 58.931C0.00238531 58.931 0.0023834 58.931 0.00238149 58.931C0.00237958 58.931 0.00237767 58.931 0.00237576 58.931C0.00237385 58.931 0.00237194 58.931 0.00237003 58.931C0.00236811 58.931 0.0023662 58.931 0.00236429 58.931C0.00236238 58.931 0.00236047 58.931 0.00235856 58.931C0.00235665 58.931 0.00235474 58.931 0.00235283 58.931C0.00235091 58.931 0.002349 58.931 0.00234709 58.931C0.00234518 58.931 0.00234327 58.931 0.00234136 58.931C0.00233945 58.931 0.00233754 58.931 0.00233563 58.931C0.00233372 58.931 0.0023318 58.931 0.00232989 58.931C0.00232798 58.931 0.00232607 58.931 0.00232416 58.931C0.00232225 58.931 0.00232034 58.931 0.00231843 58.931C0.00231652 58.931 0.0023146 58.931 0.00231269 58.931C0.00231078 58.931 0.00230887 58.931 0.00230696 58.931C0.00230505 58.931 0.00230314 58.931 0.00230123 58.931C0.00229932 58.931 0.0022974 58.931 0.00229549 58.931C0.00229358 58.931 0.00229167 58.931 0.00228976 58.931C0.00228785 58.931 0.00228594 58.931 0.00228403 58.931C0.00228212 58.931 0.0022802 58.931 0.00227829 58.931C0.00227638 58.931 0.00227447 58.931 0.00227256 58.931C0.00227065 58.931 0.00226874 58.931 0.00226683 58.931C0.00226492 58.931 0.002263 58.931 0.00226109 58.931C0.00225918 58.931 0.00225727 58.931 0.00225536 58.931C0.00225345 58.931 0.00225154 58.931 0.00224963 58.931C0.00224772 58.931 0.0022458 58.931 0.00224389 58.931C0.00224198 58.931 0.00224007 58.931 0.00223816 58.931C0.00223625 58.931 0.00223434 58.931 0.00223243 58.931C0.00223052 58.931 0.00222861 58.931 0.00222669 58.931C0.00222478 58.931 0.00222287 58.931 0.00222096 58.931C0.00221905 58.931 0.00221714 58.931 0.00221523 58.931C0.00221332 58.931 0.00221141 58.931 0.00220949 58.931C0.00220758 58.931 0.00220567 58.931 0.00220376 58.931C0.00220185 58.931 0.00219994 58.931 0.00219803 58.931C0.00219612 58.931 0.00219421 58.931 0.00219229 58.931C0.00219038 58.931 0.00218847 58.931 0.00218656 58.931C0.00218465 58.931 0.00218274 58.931 0.00218083 58.931C0.00217892 58.931 0.00217701 58.931 0.00217509 58.931C0.00217318 58.931 0.00217127 58.931 0.00216936 58.931C0.00216745 58.931 0.00216554 58.931 0.00216363 58.931C0.00216172 58.931 0.00215981 58.931 0.00215789 58.931C0.00215598 58.931 0.00215407 58.931 0.00215216 58.931C0.00215025 58.931 0.00214834 58.931 0.00214643 58.931C0.00214452 58.931 0.00214261 58.931 0.0021407 58.931C0.00213878 58.931 0.00213687 58.931 0.00213496 58.931C0.00213305 58.931 0.00213114 58.931 0.00212923 58.931C0.00212732 58.931 0.00212541 58.931 0.0021235 58.931C0.00212158 58.931 0.00211967 58.931 0.00211776 58.931C0.00211585 58.931 0.00211394 58.931 0.00211203 58.931C0.00211012 58.931 0.00210821 58.931 0.0021063 58.931C0.00210438 58.931 0.00210247 58.931 0.00210056 58.931C0.00209865 58.931 0.00209674 58.931 0.00209483 58.931C0.00209292 58.931 0.00209101 58.931 0.0020891 58.931C0.00208718 58.931 0.00208527 58.931 0.00208336 58.931C0.00208145 58.931 0.00207954 58.931 0.00207763 58.931C0.00207572 58.931 0.00207381 58.931 0.0020719 58.931C0.00206999 58.931 0.00206807 58.931 0.00206616 58.931C0.00206425 58.931 0.00206234 58.931 0.00206043 58.931C0.00205852 58.931 0.00205661 58.931 0.0020547 58.931C0.00205279 58.931 0.00205087 58.931 0.00204896 58.931C0.00204705 58.931 0.00204514 58.931 0.00204323 58.931C0.00204132 58.931 0.00203941 58.931 0.0020375 58.931C0.00203559 58.931 0.00203367 58.931 0.00203176 58.931C0.00202985 58.931 0.00202794 58.931 0.00202603 58.931C0.00202412 58.931 0.00202221 58.931 0.0020203 58.931C0.00201839 58.931 0.00201647 58.931 0.00201456 58.931C0.00201265 58.931 0.00201074 58.931 0.00200883 58.931C0.00200692 58.931 0.00200501 58.931 0.0020031 58.931C0.00200119 58.931 0.00199927 58.931 0.00199736 58.931C0.00199545 58.931 0.00199354 58.931 0.00199163 58.931C0.00198972 58.931 0.00198781 58.931 0.0019859 58.931C0.00198399 58.931 0.00198208 58.931 0.00198016 58.931C0.00197825 58.931 0.00197634 58.931 0.00197443 58.931C0.00197252 58.931 0.00197061 58.931 0.0019687 58.931C0.00196679 58.931 0.00196488 58.931 0.00196296 58.931C0.00196105 58.931 0.00195914 58.931 0.00195723 58.931C0.00195532 58.931 0.00195341 58.931 0.0019515 58.931C0.00194959 58.931 0.00194768 58.931 0.00194576 58.931C0.00194385 58.931 0.00194194 58.931 0.00194003 58.931C0.00193812 58.931 0.00193621 58.931 0.0019343 58.931C0.00193239 58.931 0.00193048 58.931 0.00192856 58.931C0.00192665 58.931 0.00192474 58.931 0.00192283 58.931C0.00192092 58.931 0.00191901 58.931 0.0019171 58.931C0.00191519 58.931 0.00191328 58.931 0.00191136 58.931C0.00190945 58.931 0.00190754 58.931 0.00190563 58.931C0.00190372 58.931 0.00190181 58.931 0.0018999 58.931C0.00189799 58.931 0.00189608 58.931 0.00189417 58.931C0.00189225 58.931 0.00189034 58.931 0.00188843 58.931C0.00188652 58.931 0.00188461 58.931 0.0018827 58.931C0.00188079 58.931 0.00187888 58.931 0.00187697 58.931C0.00187505 58.931 0.00187314 58.931 0.00187123 58.931C0.00186932 58.931 0.00186741 58.931 0.0018655 58.931C0.00186359 58.931 0.00186168 58.931 0.00185977 58.931C0.00185785 58.931 0.00185594 58.931 0.00185403 58.931C0.00185212 58.931 0.00185021 58.931 0.0018483 58.931C0.00184639 58.931 0.00184448 58.931 0.00184257 58.931C0.00184065 58.931 0.00183874 58.931 0.00183683 58.931C0.00183492 58.931 0.00183301 58.931 0.0018311 58.931C0.00182919 58.931 0.00182728 58.931 0.00182537 58.931C0.00182346 58.931 0.00182154 58.931 0.00181963 58.931C0.00181772 58.931 0.00181581 58.931 0.0018139 58.931C0.00181199 58.931 0.00181008 58.931 0.00180817 58.931C0.00180626 58.931 0.00180434 58.931 0.00180243 58.931C0.00180052 58.931 0.00179861 58.931 0.0017967 58.931C0.00179479 58.931 0.00179288 58.931 0.00179097 58.931C0.00178906 58.931 0.00178714 58.931 0.00178523 58.931C0.00178332 58.931 0.00178141 58.931 0.0017795 58.931C0.00177759 58.931 0.00177568 58.931 0.00177377 58.931C0.00177186 58.931 0.00176995 58.931 0.00176803 58.931C0.00176612 58.931 0.00176421 58.931 0.0017623 58.931C0.00176039 58.931 0.00175848 58.931 0.00175657 58.931C0.00175466 58.931 0.00175275 58.931 0.00175083 58.931C0.00174892 58.931 0.00174701 58.931 0.0017451 58.931C0.00174319 58.931 0.00174128 58.931 0.00173937 58.931C0.00173746 58.931 0.00173555 58.931 0.00173363 58.931C0.00173172 58.931 0.00172981 58.931 0.0017279 58.931C0.00172599 58.931 0.00172408 58.931 0.00172217 58.931C0.00172026 58.931 0.00171835 58.931 0.00171643 58.931C0.00171452 58.931 0.00171261 58.931 0.0017107 58.931C0.00170879 58.931 0.00170688 58.931 0.00170497 58.931C0.00170306 58.931 0.00170115 58.931 0.00169924 58.931C0.00169732 58.931 0.00169541 58.931 0.0016935 58.931C0.00169159 58.931 0.00168968 58.931 0.00168777 58.931C0.00168586 58.931 0.00168395 58.931 0.00168204 58.931C0.00168012 58.931 0.00167821 58.931 0.0016763 58.931C0.00167439 58.931 0.00167248 58.931 0.00167057 58.931C0.00166866 58.931 0.00166675 58.931 0.00166484 58.931C0.00166292 58.931 0.00166101 58.931 0.0016591 58.931C0.00165719 58.931 0.00165528 58.931 0.00165337 58.931C0.00165146 58.931 0.00164955 58.931 0.00164764 58.931C0.00164572 58.931 0.00164381 58.931 0.0016419 58.931C0.00163999 58.931 0.00163808 58.931 0.00163617 58.931C0.00163426 58.931 0.00163235 58.931 0.00163044 58.931C0.00162853 58.931 0.00162661 58.931 0.0016247 58.931C0.00162279 58.931 0.00162088 58.931 0.00161897 58.931C0.00161706 58.931 0.00161515 58.931 0.00161324 58.931C0.00161133 58.931 0.00160941 58.931 0.0016075 58.931C0.00160559 58.931 0.00160368 58.931 0.00160177 58.931C0.00159986 58.931 0.00159795 58.931 0.00159604 58.931C0.00159413 58.931 0.00159221 58.931 0.0015903 58.931C0.00158839 58.931 0.00158648 58.931 0.00158457 58.931C0.00158266 58.931 0.00158075 58.931 0.00157884 58.931C0.00157693 58.931 0.00157502 58.931 0.0015731 58.931C0.00157119 58.931 0.00156928 58.931 0.00156737 58.931C0.00156546 58.931 0.00156355 58.931 0.00156164 58.931C0.00155973 58.931 0.00155782 58.931 0.0015559 58.931C0.00155399 58.931 0.00155208 58.931 0.00155017 58.931C0.00154826 58.931 0.00154635 58.931 0.00154444 58.931C0.00154253 58.931 0.00154062 58.931 0.0015387 58.931C0.00153679 58.931 0.00153488 58.931 0.00153297 58.931C0.00153106 58.931 0.00152915 58.931 0.00152724 58.931C0.00152533 58.931 0.00152342 58.931 0.0015215 58.931C0.00151959 58.931 0.00151768 58.931 0.00151577 58.931C0.00151386 58.931 0.00151195 58.931 0.00151004 58.931C0.00150813 58.931 0.00150622 58.931 0.00150431 58.931C0.00150239 58.931 0.00150048 58.931 0.00149857 58.931C0.00149666 58.931 0.00149475 58.931 0.00149284 58.931C0.00149093 58.931 0.00148902 58.931 0.00148711 58.931C0.00148519 58.931 0.00148328 58.931 0.00148137 58.931C0.00147946 58.931 0.00147755 58.931 0.00147564 58.931C0.00147373 58.931 0.00147182 58.931 0.00146991 58.931C0.00146799 58.931 0.00146608 58.931 0.00146417 58.931C0.00146226 58.931 0.00146035 58.931 0.00145844 58.931C0.00145653 58.931 0.00145462 58.931 0.00145271 58.931C0.00145079 58.931 0.00144888 58.931 0.00144697 58.931C0.00144506 58.931 0.00144315 58.931 0.00144124 58.931C0.00143933 58.931 0.00143742 58.931 0.00143551 58.931C0.0014336 58.931 0.00143168 58.931 0.00142977 58.931C0.00142786 58.931 0.00142595 58.931 0.00142404 58.931C0.00142213 58.931 0.00142022 58.931 0.00141831 58.931C0.0014164 58.931 0.00141448 58.931 0.00141257 58.931C0.00141066 58.931 0.00140875 58.931 0.00140684 58.931C0.00140493 58.931 0.00140302 58.931 0.00140111 58.931C0.0013992 58.931 0.00139728 58.931 0.00139537 58.931C0.00139346 58.931 0.00139155 58.931 0.00138964 58.931C0.00138773 58.931 0.00138582 58.931 0.00138391 58.931C0.001382 58.931 0.00138009 58.931 0.00137817 58.931C0.00137626 58.931 0.00137435 58.931 0.00137244 58.931C0.00137053 58.931 0.00136862 58.931 0.00136671 58.931C0.0013648 58.931 0.00136289 58.931 0.00136097 58.931C0.00135906 58.931 0.00135715 58.931 0.00135524 58.931C0.00135333 58.931 0.00135142 58.931 0.00134951 58.931C0.0013476 58.931 0.00134569 58.931 0.00134377 58.931C0.00134186 58.931 0.00133995 58.931 0.00133804 58.931C0.00133613 58.931 0.00133422 58.931 0.00133231 58.931C0.0013304 58.931 0.00132849 58.931 0.00132658 58.931C0.00132466 58.931 0.00132275 58.931 0.00132084 58.931C0.00131893 58.931 0.00131702 58.931 0.00131511 58.931C0.0013132 58.931 0.00131129 58.931 0.00130938 58.931C0.00130746 58.931 0.00130555 58.931 0.00130364 58.931C0.00130173 58.931 0.00129982 58.931 0.00129791 58.931C0.001296 58.931 0.00129409 58.931 0.00129218 58.931C0.00129026 58.931 0.00128835 58.931 0.00128644 58.931C0.00128453 58.931 0.00128262 58.931 0.00128071 58.931C0.0012788 58.931 0.00127689 58.931 0.00127498 58.931C0.00127306 58.931 0.00127115 58.931 0.00126924 58.931C0.00126733 58.931 0.00126542 58.931 0.00126351 58.931C0.0012616 58.931 0.00125969 58.931 0.00125778 58.931C0.00125587 58.931 0.00125395 58.931 0.00125204 58.931C0.00125013 58.931 0.00124822 58.931 0.00124631 58.931C0.0012444 58.931 0.00124249 58.931 0.00124058 58.931C0.00123867 58.931 0.00123675 58.931 0.00123484 58.931C0.00123293 58.931 0.00123102 58.931 0.00122911 58.931C0.0012272 58.931 0.00122529 58.931 0.00122338 58.931C0.00122147 58.931 0.00121956 58.931 0.00121764 58.931C0.00121573 58.931 0.00121382 58.931 0.00121191 58.931C0.00121 58.931 0.00120809 58.931 0.00120618 58.931C0.00120427 58.931 0.00120236 58.931 0.00120044 58.931C0.00119853 58.931 0.00119662 58.931 0.00119471 58.931C0.0011928 58.931 0.00119089 58.931 0.00118898 58.931C0.00118707 58.931 0.00118516 58.931 0.00118324 58.931C0.00118133 58.931 0.00117942 58.931 0.00117751 58.931C0.0011756 58.931 0.00117369 58.931 0.00117178 58.931C0.00116987 58.931 0.00116796 58.931 0.00116604 58.931C0.00116413 58.931 0.00116222 58.931 0.00116031 58.931C0.0011584 58.931 0.00115649 58.931 0.00115458 58.931C0.00115267 58.931 0.00115076 58.931 0.00114885 58.931C0.00114693 58.931 0.00114502 58.931 0.00114311 58.931C0.0011412 58.931 0.00113929 58.931 0.00113738 58.931C0.00113547 58.931 0.00113356 58.931 0.00113165 58.931C0.00112973 58.931 0.00112782 58.931 0.00112591 58.931C0.001124 58.931 0.00112209 58.931 0.00112018 58.931C0.00111827 58.931 0.00111636 58.931 0.00111445 58.931C0.00111254 58.931 0.00111062 58.931 0.00110871 58.931C0.0011068 58.931 0.00110489 58.931 0.00110298 58.931C0.00110107 58.931 0.00109916 58.931 0.00109725 58.931C0.00109534 58.931 0.00109342 58.931 0.00109151 58.931C0.0010896 58.931 0.00108769 58.931 0.00108578 58.931C0.00108387 58.931 0.00108196 58.931 0.00108005 58.931C0.00107814 58.931 0.00107622 58.931 0.00107431 58.931C0.0010724 58.931 0.00107049 58.931 0.00106858 58.931C0.00106667 58.931 0.00106476 58.931 0.00106285 58.931C0.00106094 58.931 0.00105903 58.931 0.00105711 58.931C0.0010552 58.931 0.00105329 58.931 0.00105138 58.931C0.00104947 58.931 0.00104756 58.931 0.00104565 58.931C0.00104374 58.931 0.00104183 58.931 0.00103991 58.931C0.001038 58.931 0.00103609 58.931 0.00103418 58.931C0.00103227 58.931 0.00103036 58.931 0.00102845 58.931C0.00102654 58.931 0.00102463 58.931 0.00102271 58.931C0.0010208 58.931 0.00101889 58.931 0.00101698 58.931C0.00101507 58.931 0.00101316 58.931 0.00101125 58.931C0.00100934 58.931 0.00100743 58.931 0.00100552 58.931C0.0010036 58.931 0.00100169 58.931 0.000999782 58.931C0.000997871 58.931 0.00099596 58.931 0.000994049 58.931C0.000992138 58.931 0.000990227 58.931 0.000988315 58.931C0.000986404 58.931 0.000984493 58.931 0.000982582 58.931C0.000980671 58.931 0.00097876 58.931 0.000976849 58.931C0.000974938 58.931 0.000973027 58.931 0.000971116 58.931C0.000969205 58.931 0.000967294 58.931 0.000965383 58.931C0.000963471 58.931 0.00096156 58.931 0.000959649 58.931C0.000957738 58.931 0.000955827 58.931 0.000953916 58.931C0.000952005 58.931 0.000950094 58.931 0.000948183 58.931C0.000946272 58.931 0.000944361 58.931 0.00094245 58.931C0.000940539 58.931 0.000938628 58.931 0.000936717 58.931C0.000934805 58.931 0.000932894 58.931 0.000930983 58.931C0.000929072 58.931 0.000927161 58.931 0.00092525 58.931C0.000923339 58.931 0.000921428 58.931 0.000919517 58.931C0.000917606 58.931 0.000915695 58.931 0.000913784 58.931C0.000911873 58.931 0.000909962 58.931 0.000908051 58.931C0.000906139 58.931 0.000904228 58.931 0.000902317 58.931C0.000900406 58.931 0.000898495 58.931 0.000896584 58.931C0.000894673 58.931 0.000892762 58.931 0.000890851 58.931C0.00088894 58.931 0.000887029 58.931 0.000885118 58.931C0.000883207 58.931 0.000881296 58.931 0.000879385 58.931C0.000877474 58.931 0.000875562 58.931 0.000873651 58.931C0.00087174 58.931 0.000869829 58.931 0.000867918 58.931C0.000866007 58.931 0.000864096 58.931 0.000862185 58.931C0.000860274 58.931 0.000858363 58.931 0.000856452 58.931C0.000854541 58.931 0.00085263 58.931 0.000850718 58.931C0.000848808 58.931 0.000846896 58.931 0.000844985 58.931C0.000843074 58.931 0.000841163 58.931 0.000839252 58.931C0.000837341 58.931 0.00083543 58.931 0.000833519 58.931C0.000831608 58.931 0.000829697 58.931 0.000827786 58.931C0.000825875 58.931 0.000823964 58.931 0.000822053 58.931C0.000820141 58.931 0.00081823 58.931 0.000816319 58.931C0.000814408 58.931 0.000812497 58.931 0.000810586 58.931C0.000808675 58.931 0.000806764 58.931 0.000804853 58.931C0.000802942 58.931 0.000801031 58.931 0.00079912 58.931C0.000797209 58.931 0.000795298 58.931 0.000793387 58.931C0.000791475 58.931 0.000789564 58.931 0.000787653 58.931C0.000785742 58.931 0.000783831 58.931 0.00078192 58.931C0.000780009 58.931 0.000778098 58.931 0.000776187 58.931C0.000774276 58.931 0.000772365 58.931 0.000770454 58.931C0.000768543 58.931 0.000766632 58.931 0.000764721 58.931C0.000762809 58.931 0.000760898 58.931 0.000758987 58.931C0.000757076 58.931 0.000755165 58.931 0.000753254 58.931C0.000751343 58.931 0.000749432 58.931 0.000747521 58.931C0.00074561 58.931 0.000743699 58.931 0.000741788 58.931C0.000739877 58.931 0.000737966 58.931 0.000736055 58.931C0.000734143 58.931 0.000732232 58.931 0.000730321 58.931C0.00072841 58.931 0.000726499 58.931 0.000724588 58.931C0.000722677 58.931 0.000720766 58.931 0.000718855 58.931C0.000716944 58.931 0.000715033 58.931 0.000713122 58.931C0.000711211 58.931 0.0007093 58.931 0.000707389 58.931C0.000705477 58.931 0.000703566 58.931 0.000701655 58.931C0.000699744 58.931 0.000697833 58.931 0.000695922 58.931C0.000694011 58.931 0.0006921 58.931 0.000690189 58.931C0.000688278 58.931 0.000686367 58.931 0.000684456 58.931C0.000682545 58.931 0.000680634 58.931 0.000678723 58.931C0.000676811 58.931 0.0006749 58.931 0.000672989 58.931C0.000671078 58.931 0.000669167 58.931 0.000667256 58.931C0.000665345 58.931 0.000663434 58.931 0.000661523 58.931C0.000659612 58.931 0.000657701 58.931 0.00065579 58.931C0.000653879 58.931 0.000651968 58.931 0.000650057 58.931C0.000648146 58.931 0.000646234 58.931 0.000644323 58.931C0.000642412 58.931 0.000640501 58.931 0.00063859 58.931C0.000636679 58.931 0.000634768 58.931 0.000632857 58.931C0.000630946 58.931 0.000629035 58.931 0.000627124 58.931C0.000625213 58.931 0.000623302 58.931 0.000621391 58.931C0.00061948 58.931 0.000617569 58.931 0.000615657 58.931C0.000613746 58.931 0.000611835 58.931 0.000609924 58.931C0.000608013 58.931 0.000606102 58.931 0.000604191 58.931C0.00060228 58.931 0.000600369 58.931 0.000598458 58.931C0.000596547 58.931 0.000594636 58.931 0.000592725 58.931C0.000590814 58.931 0.000588903 58.931 0.000586992 58.931C0.00058508 58.931 0.000583169 58.931 0.000581258 58.931C0.000579347 58.931 0.000577436 58.931 0.000575525 58.931C0.000573614 58.931 0.000571703 58.931 0.000569792 58.931C0.000567881 58.931 0.00056597 58.931 0.000564059 58.931C0.000562148 58.931 0.000560237 58.931 0.000558326 58.931C0.000556415 58.931 0.000554503 58.931 0.000552592 58.931C0.000550681 58.931 0.00054877 58.931 0.000546859 58.931C0.000544948 58.931 0.000543037 58.931 0.000541126 58.931C0.000539215 58.931 0.000537304 58.931 0.000535393 58.931C0.000533482 58.931 0.000531571 58.931 0.00052966 58.931C0.000527749 58.931 0.000525838 58.931 0.000523926 58.931C0.000522015 58.931 0.000520104 58.931 0.000518193 58.931C0.000516282 58.931 0.000514371 58.931 0.00051246 58.931C0.000510549 58.931 0.000508638 58.931 0.000506727 58.931C0.000504816 58.931 0.000502905 58.931 0.000500994 58.931C0.000499083 58.931 0.000497172 58.931 0.000495261 58.931C0.000493349 58.931 0.000491438 58.931 0.000489527 58.931C0.000487616 58.931 0.000485705 58.931 0.000483794 58.931C0.000481883 58.931 0.000479972 58.931 0.000478061 58.931C0.00047615 58.931 0.000474239 58.931 0.000472328 58.931C0.000470417 58.931 0.000468506 58.931 0.000466595 58.931C0.000464684 58.931 0.000462772 58.931 0.000460861 58.931C0.00045895 58.931 0.000457039 58.931 0.000455128 58.931C0.000453217 58.931 0.000451306 58.931 0.000449395 58.931C0.000447484 58.931 0.000445573 58.931 0.000443662 58.931C0.000441751 58.931 0.00043984 58.931 0.000437929 58.931C0.000436018 58.931 0.000434107 58.931 0.000432195 58.931C0.000430284 58.931 0.000428373 58.931 0.000426462 58.931C0.000424551 58.931 0.00042264 58.931 0.000420729 58.931C0.000418818 58.931 0.000416907 58.931 0.000414996 58.931C0.000413085 58.931 0.000411174 58.931 0.000409263 58.931C0.000407352 58.931 0.000405441 58.931 0.00040353 58.931C0.000401618 58.931 0.000399707 58.931 0.000397796 58.931C0.000395885 58.931 0.000393974 58.931 0.000392063 58.931C0.000390152 58.931 0.000388241 58.931 0.00038633 58.931C0.000384419 58.931 0.000382508 58.931 0.000380597 58.931C0.000378686 58.931 0.000376775 58.931 0.000374864 58.931C0.000372953 58.931 0.000371042 58.931 0.00036913 58.931C0.000367219 58.931 0.000365308 58.931 0.000363397 58.931C0.000361486 58.931 0.000359575 58.931 0.000357664 58.931C0.000355753 58.931 0.000353842 58.931 0.000351931 58.931C0.00035002 58.931 0.000348109 58.931 0.000346198 58.931C0.000344287 58.931 0.000342376 58.931 0.000340465 58.931C0.000338554 58.931 0.000336642 58.931 0.000334731 58.931C0.00033282 58.931 0.000330909 58.931 0.000328998 58.931C0.000327087 58.931 0.000325176 58.931 0.000323265 58.931C0.000321354 58.931 0.000319443 58.931 0.000317532 58.931C0.000315621 58.931 0.00031371 58.931 0.000311799 58.931C0.000309888 58.931 0.000307977 58.931 0.000306066 58.931C0.000304154 58.931 0.000302243 58.931 0.000300332 58.931C0.000298421 58.931 0.00029651 58.931 0.000294599 58.931C0.000292688 58.931 0.000290777 58.931 0.000288866 58.931C0.000286955 58.931 0.000285044 58.931 0.000283133 58.931C0.000281222 58.931 0.000279311 58.931 0.0002774 58.931C0.000275489 58.931 0.000273578 58.931 0.000271666 58.931C0.000269755 58.931 0.000267844 58.931 0.000265933 58.931C0.000264022 58.931 0.000262111 58.931 0.0002602 58.931C0.000258289 58.931 0.000256378 58.931 0.000254467 58.931C0.000252556 58.931 0.000250645 58.931 0.000248734 58.931C0.000246823 58.931 0.000244912 58.931 0.000243001 58.931C0.00024109 58.931 0.000239178 58.931 0.000237267 58.931C0.000235356 58.931 0.000233445 58.931 0.000231534 58.931C0.000229623 58.931 0.000227712 58.931 0.000225801 58.931C0.00022389 58.931 0.000221979 58.931 0.000220068 58.931C0.000218157 58.931 0.000216246 58.931 0.000214335 58.931C0.000212424 58.931 0.000210513 58.931 0.000208602 58.931C0.00020669 58.931 0.000204779 58.931 0.000202868 58.931C0.000200957 58.931 0.000199046 58.931 0.000197135 58.931C0.000195224 58.931 0.000193313 58.931 0.000191402 58.931C0.000189491 58.931 0.00018758 58.931 0.000185669 58.931C0.000183758 58.931 0.000181847 58.931 0.000179936 58.931C0.000178025 58.931 0.000176114 58.931 0.000174202 58.931C0.000172291 58.931 0.00017038 58.931 0.000168469 58.931C0.000166558 58.931 0.000164647 58.931 0.000162736 58.931C0.000160825 58.931 0.000158914 58.931 0.000157003 58.931C0.000155092 58.931 0.000153181 58.931 0.00015127 58.931C0.000149359 58.931 0.000147448 58.931 0.000145537 58.931C0.000143626 58.931 0.000141715 58.931 0.000139803 58.931C0.000137892 58.931 0.000135981 58.931 0.00013407 58.931C0.000132159 58.931 0.000130248 58.931 0.000128337 58.931C0.000126426 58.931 0.000124515 58.931 0.000122604 58.931C0.000120693 58.931 0.000118782 58.931 0.000116871 58.931C0.00011496 58.931 0.000113049 58.931 0.000111138 58.931C0.000109227 58.931 0.000107316 58.931 0.000105404 58.931C0.000103493 58.931 0.000101582 58.931 9.96713e-05 58.931C9.77602e-05 58.931 9.58492e-05 58.931 9.39381e-05 58.931C9.20271e-05 58.931 9.0116e-05 58.931 8.82049e-05 58.931C8.62939e-05 58.931 8.43828e-05 58.931 8.24718e-05 58.931C8.05607e-05 58.931 7.86497e-05 58.931 7.67386e-05 58.931C7.48276e-05 58.931 7.29165e-05 58.931 7.10054e-05 58.931C6.90944e-05 58.931 6.71833e-05 58.931 6.52723e-05 58.931C6.33612e-05 58.931 6.14502e-05 58.931 5.95391e-05 58.931C5.76281e-05 58.931 5.5717e-05 58.931 5.38059e-05 58.931C5.18949e-05 58.931 4.99838e-05 58.931 4.80728e-05 58.931C4.61617e-05 58.931 4.42507e-05 58.931 4.23396e-05 58.931C4.04286e-05 58.931 3.85175e-05 58.931 3.66064e-05 58.931C3.46954e-05 58.931 3.27843e-05 58.931 3.08733e-05 58.931C2.89622e-05 58.931 2.70512e-05 58.931 2.51401e-05 58.931C2.32291e-05 58.931 2.1318e-05 58.931 1.94069e-05 58.931C1.74959e-05 58.931 1.55848e-05 58.931 1.36738e-05 58.931C1.17627e-05 58.931 9.85168e-06 58.931 7.94062e-06 58.931C6.02957e-06 58.931 4.11851e-06 58.931 2.20745e-06 58.931C2.96393e-07 58.931 -1.61465e-06 58.931 -3.52571e-06 58.931C-5.43677e-06 58.931 -7.34781e-06 58.931 -9.25887e-06 58.931C-1.11699e-05 58.931 -1.3081e-05 58.931 -1.4992e-05 58.931C-1.69031e-05 58.931 -1.88141e-05 58.931 -2.07252e-05 58.931C-2.26363e-05 58.931 -2.45473e-05 58.931 -2.64584e-05 58.931C-2.83694e-05 58.931 -3.02805e-05 58.931 -3.21915e-05 58.931C-3.41026e-05 58.931 -3.60136e-05 58.931 -3.79247e-05 58.931C-3.98357e-05 58.931 -4.17468e-05 58.931 -4.36578e-05 58.931C-4.55689e-05 58.931 -4.748e-05 58.931 -4.9391e-05 58.931C-5.13021e-05 58.931 -5.32131e-05 58.931 -5.51242e-05 58.931C-5.70352e-05 58.931 -5.89463e-05 58.931 -6.08573e-05 58.931C-6.27684e-05 58.931 -6.46794e-05 58.931 -6.65905e-05 58.931C-6.85016e-05 58.931 -7.04126e-05 58.931 -7.23237e-05 58.931C-7.42347e-05 58.931 -7.61458e-05 58.931 -7.80568e-05 58.931C-7.99679e-05 58.931 -8.18789e-05 58.931 -8.379e-05 58.931C-8.5701e-05 58.931 -8.76121e-05 58.931 -8.95231e-05 58.931C-9.14342e-05 58.931 -9.33453e-05 58.931 -9.52563e-05 58.931C-9.71674e-05 58.931 -9.90784e-05 58.931 -0.000100989 58.931C-0.000102901 58.931 -0.000104812 58.931 -0.000106723 58.931C-0.000108634 58.931 -0.000110545 58.931 -0.000112456 58.931C-0.000114367 58.931 -0.000116278 58.931 -0.000118189 58.931C-0.0001201 58.931 -0.000122011 58.931 -0.000123922 58.931C-0.000125833 58.931 -0.000127744 58.931 -0.000129655 58.931C-0.000131566 58.931 -0.000133477 58.931 -0.000135388 58.931C-0.000137299 58.931 -0.000139211 58.931 -0.000141122 58.931C-0.000143033 58.931 -0.000144944 58.931 -0.000146855 58.931C-0.000148766 58.931 -0.000150677 58.931 -0.000152588 58.931V60.931C-0.000150677 60.931 -0.000148766 60.931 -0.000146855 60.931C-0.000144944 60.931 -0.000143033 60.931 -0.000141122 60.931C-0.000139211 60.931 -0.000137299 60.931 -0.000135388 60.931C-0.000133477 60.931 -0.000131566 60.931 -0.000129655 60.931C-0.000127744 60.931 -0.000125833 60.931 -0.000123922 60.931C-0.000122011 60.931 -0.0001201 60.931 -0.000118189 60.931C-0.000116278 60.931 -0.000114367 60.931 -0.000112456 60.931C-0.000110545 60.931 -0.000108634 60.931 -0.000106723 60.931C-0.000104812 60.931 -0.000102901 60.931 -0.000100989 60.931C-9.90784e-05 60.931 -9.71674e-05 60.931 -9.52563e-05 60.931C-9.33453e-05 60.931 -9.14342e-05 60.931 -8.95231e-05 60.931C-8.76121e-05 60.931 -8.5701e-05 60.931 -8.379e-05 60.931C-8.18789e-05 60.931 -7.99679e-05 60.931 -7.80568e-05 60.931C-7.61458e-05 60.931 -7.42347e-05 60.931 -7.23237e-05 60.931C-7.04126e-05 60.931 -6.85016e-05 60.931 -6.65905e-05 60.931C-6.46794e-05 60.931 -6.27684e-05 60.931 -6.08573e-05 60.931C-5.89463e-05 60.931 -5.70352e-05 60.931 -5.51242e-05 60.931C-5.32131e-05 60.931 -5.13021e-05 60.931 -4.9391e-05 60.931C-4.748e-05 60.931 -4.55689e-05 60.931 -4.36578e-05 60.931C-4.17468e-05 60.931 -3.98357e-05 60.931 -3.79247e-05 60.931C-3.60136e-05 60.931 -3.41026e-05 60.931 -3.21915e-05 60.931C-3.02805e-05 60.931 -2.83694e-05 60.931 -2.64584e-05 60.931C-2.45473e-05 60.931 -2.26363e-05 60.931 -2.07252e-05 60.931C-1.88141e-05 60.931 -1.69031e-05 60.931 -1.4992e-05 60.931C-1.3081e-05 60.931 -1.11699e-05 60.931 -9.25887e-06 60.931C-7.34781e-06 60.931 -5.43677e-06 60.931 -3.52571e-06 60.931C-1.61465e-06 60.931 2.96393e-07 60.931 2.20745e-06 60.931C4.11851e-06 60.931 6.02957e-06 60.931 7.94062e-06 60.931C9.85168e-06 60.931 1.17627e-05 60.931 1.36738e-05 60.931C1.55848e-05 60.931 1.74959e-05 60.931 1.94069e-05 60.931C2.1318e-05 60.931 2.32291e-05 60.931 2.51401e-05 60.931C2.70512e-05 60.931 2.89622e-05 60.931 3.08733e-05 60.931C3.27843e-05 60.931 3.46954e-05 60.931 3.66064e-05 60.931C3.85175e-05 60.931 4.04286e-05 60.931 4.23396e-05 60.931C4.42507e-05 60.931 4.61617e-05 60.931 4.80728e-05 60.931C4.99838e-05 60.931 5.18949e-05 60.931 5.38059e-05 60.931C5.5717e-05 60.931 5.76281e-05 60.931 5.95391e-05 60.931C6.14502e-05 60.931 6.33612e-05 60.931 6.52723e-05 60.931C6.71833e-05 60.931 6.90944e-05 60.931 7.10054e-05 60.931C7.29165e-05 60.931 7.48276e-05 60.931 7.67386e-05 60.931C7.86497e-05 60.931 8.05607e-05 60.931 8.24718e-05 60.931C8.43828e-05 60.931 8.62939e-05 60.931 8.82049e-05 60.931C9.0116e-05 60.931 9.20271e-05 60.931 9.39381e-05 60.931C9.58492e-05 60.931 9.77602e-05 60.931 9.96713e-05 60.931C0.000101582 60.931 0.000103493 60.931 0.000105404 60.931C0.000107316 60.931 0.000109227 60.931 0.000111138 60.931C0.000113049 60.931 0.00011496 60.931 0.000116871 60.931C0.000118782 60.931 0.000120693 60.931 0.000122604 60.931C0.000124515 60.931 0.000126426 60.931 0.000128337 60.931C0.000130248 60.931 0.000132159 60.931 0.00013407 60.931C0.000135981 60.931 0.000137892 60.931 0.000139803 60.931C0.000141715 60.931 0.000143626 60.931 0.000145537 60.931C0.000147448 60.931 0.000149359 60.931 0.00015127 60.931C0.000153181 60.931 0.000155092 60.931 0.000157003 60.931C0.000158914 60.931 0.000160825 60.931 0.000162736 60.931C0.000164647 60.931 0.000166558 60.931 0.000168469 60.931C0.00017038 60.931 0.000172291 60.931 0.000174202 60.931C0.000176114 60.931 0.000178025 60.931 0.000179936 60.931C0.000181847 60.931 0.000183758 60.931 0.000185669 60.931C0.00018758 60.931 0.000189491 60.931 0.000191402 60.931C0.000193313 60.931 0.000195224 60.931 0.000197135 60.931C0.000199046 60.931 0.000200957 60.931 0.000202868 60.931C0.000204779 60.931 0.00020669 60.931 0.000208602 60.931C0.000210513 60.931 0.000212424 60.931 0.000214335 60.931C0.000216246 60.931 0.000218157 60.931 0.000220068 60.931C0.000221979 60.931 0.00022389 60.931 0.000225801 60.931C0.000227712 60.931 0.000229623 60.931 0.000231534 60.931C0.000233445 60.931 0.000235356 60.931 0.000237267 60.931C0.000239178 60.931 0.00024109 60.931 0.000243001 60.931C0.000244912 60.931 0.000246823 60.931 0.000248734 60.931C0.000250645 60.931 0.000252556 60.931 0.000254467 60.931C0.000256378 60.931 0.000258289 60.931 0.0002602 60.931C0.000262111 60.931 0.000264022 60.931 0.000265933 60.931C0.000267844 60.931 0.000269755 60.931 0.000271666 60.931C0.000273578 60.931 0.000275489 60.931 0.0002774 60.931C0.000279311 60.931 0.000281222 60.931 0.000283133 60.931C0.000285044 60.931 0.000286955 60.931 0.000288866 60.931C0.000290777 60.931 0.000292688 60.931 0.000294599 60.931C0.00029651 60.931 0.000298421 60.931 0.000300332 60.931C0.000302243 60.931 0.000304154 60.931 0.000306066 60.931C0.000307977 60.931 0.000309888 60.931 0.000311799 60.931C0.00031371 60.931 0.000315621 60.931 0.000317532 60.931C0.000319443 60.931 0.000321354 60.931 0.000323265 60.931C0.000325176 60.931 0.000327087 60.931 0.000328998 60.931C0.000330909 60.931 0.00033282 60.931 0.000334731 60.931C0.000336642 60.931 0.000338554 60.931 0.000340465 60.931C0.000342376 60.931 0.000344287 60.931 0.000346198 60.931C0.000348109 60.931 0.00035002 60.931 0.000351931 60.931C0.000353842 60.931 0.000355753 60.931 0.000357664 60.931C0.000359575 60.931 0.000361486 60.931 0.000363397 60.931C0.000365308 60.931 0.000367219 60.931 0.00036913 60.931C0.000371042 60.931 0.000372953 60.931 0.000374864 60.931C0.000376775 60.931 0.000378686 60.931 0.000380597 60.931C0.000382508 60.931 0.000384419 60.931 0.00038633 60.931C0.000388241 60.931 0.000390152 60.931 0.000392063 60.931C0.000393974 60.931 0.000395885 60.931 0.000397796 60.931C0.000399707 60.931 0.000401618 60.931 0.00040353 60.931C0.000405441 60.931 0.000407352 60.931 0.000409263 60.931C0.000411174 60.931 0.000413085 60.931 0.000414996 60.931C0.000416907 60.931 0.000418818 60.931 0.000420729 60.931C0.00042264 60.931 0.000424551 60.931 0.000426462 60.931C0.000428373 60.931 0.000430284 60.931 0.000432195 60.931C0.000434107 60.931 0.000436018 60.931 0.000437929 60.931C0.00043984 60.931 0.000441751 60.931 0.000443662 60.931C0.000445573 60.931 0.000447484 60.931 0.000449395 60.931C0.000451306 60.931 0.000453217 60.931 0.000455128 60.931C0.000457039 60.931 0.00045895 60.931 0.000460861 60.931C0.000462772 60.931 0.000464684 60.931 0.000466595 60.931C0.000468506 60.931 0.000470417 60.931 0.000472328 60.931C0.000474239 60.931 0.00047615 60.931 0.000478061 60.931C0.000479972 60.931 0.000481883 60.931 0.000483794 60.931C0.000485705 60.931 0.000487616 60.931 0.000489527 60.931C0.000491438 60.931 0.000493349 60.931 0.000495261 60.931C0.000497172 60.931 0.000499083 60.931 0.000500994 60.931C0.000502905 60.931 0.000504816 60.931 0.000506727 60.931C0.000508638 60.931 0.000510549 60.931 0.00051246 60.931C0.000514371 60.931 0.000516282 60.931 0.000518193 60.931C0.000520104 60.931 0.000522015 60.931 0.000523926 60.931C0.000525838 60.931 0.000527749 60.931 0.00052966 60.931C0.000531571 60.931 0.000533482 60.931 0.000535393 60.931C0.000537304 60.931 0.000539215 60.931 0.000541126 60.931C0.000543037 60.931 0.000544948 60.931 0.000546859 60.931C0.00054877 60.931 0.000550681 60.931 0.000552592 60.931C0.000554503 60.931 0.000556415 60.931 0.000558326 60.931C0.000560237 60.931 0.000562148 60.931 0.000564059 60.931C0.00056597 60.931 0.000567881 60.931 0.000569792 60.931C0.000571703 60.931 0.000573614 60.931 0.000575525 60.931C0.000577436 60.931 0.000579347 60.931 0.000581258 60.931C0.000583169 60.931 0.00058508 60.931 0.000586992 60.931C0.000588903 60.931 0.000590814 60.931 0.000592725 60.931C0.000594636 60.931 0.000596547 60.931 0.000598458 60.931C0.000600369 60.931 0.00060228 60.931 0.000604191 60.931C0.000606102 60.931 0.000608013 60.931 0.000609924 60.931C0.000611835 60.931 0.000613746 60.931 0.000615657 60.931C0.000617569 60.931 0.00061948 60.931 0.000621391 60.931C0.000623302 60.931 0.000625213 60.931 0.000627124 60.931C0.000629035 60.931 0.000630946 60.931 0.000632857 60.931C0.000634768 60.931 0.000636679 60.931 0.00063859 60.931C0.000640501 60.931 0.000642412 60.931 0.000644323 60.931C0.000646234 60.931 0.000648146 60.931 0.000650057 60.931C0.000651968 60.931 0.000653879 60.931 0.00065579 60.931C0.000657701 60.931 0.000659612 60.931 0.000661523 60.931C0.000663434 60.931 0.000665345 60.931 0.000667256 60.931C0.000669167 60.931 0.000671078 60.931 0.000672989 60.931C0.0006749 60.931 0.000676811 60.931 0.000678723 60.931C0.000680634 60.931 0.000682545 60.931 0.000684456 60.931C0.000686367 60.931 0.000688278 60.931 0.000690189 60.931C0.0006921 60.931 0.000694011 60.931 0.000695922 60.931C0.000697833 60.931 0.000699744 60.931 0.000701655 60.931C0.000703566 60.931 0.000705477 60.931 0.000707389 60.931C0.0007093 60.931 0.000711211 60.931 0.000713122 60.931C0.000715033 60.931 0.000716944 60.931 0.000718855 60.931C0.000720766 60.931 0.000722677 60.931 0.000724588 60.931C0.000726499 60.931 0.00072841 60.931 0.000730321 60.931C0.000732232 60.931 0.000734143 60.931 0.000736055 60.931C0.000737966 60.931 0.000739877 60.931 0.000741788 60.931C0.000743699 60.931 0.00074561 60.931 0.000747521 60.931C0.000749432 60.931 0.000751343 60.931 0.000753254 60.931C0.000755165 60.931 0.000757076 60.931 0.000758987 60.931C0.000760898 60.931 0.000762809 60.931 0.000764721 60.931C0.000766632 60.931 0.000768543 60.931 0.000770454 60.931C0.000772365 60.931 0.000774276 60.931 0.000776187 60.931C0.000778098 60.931 0.000780009 60.931 0.00078192 60.931C0.000783831 60.931 0.000785742 60.931 0.000787653 60.931C0.000789564 60.931 0.000791475 60.931 0.000793387 60.931C0.000795298 60.931 0.000797209 60.931 0.00079912 60.931C0.000801031 60.931 0.000802942 60.931 0.000804853 60.931C0.000806764 60.931 0.000808675 60.931 0.000810586 60.931C0.000812497 60.931 0.000814408 60.931 0.000816319 60.931C0.00081823 60.931 0.000820141 60.931 0.000822053 60.931C0.000823964 60.931 0.000825875 60.931 0.000827786 60.931C0.000829697 60.931 0.000831608 60.931 0.000833519 60.931C0.00083543 60.931 0.000837341 60.931 0.000839252 60.931C0.000841163 60.931 0.000843074 60.931 0.000844985 60.931C0.000846896 60.931 0.000848808 60.931 0.000850718 60.931C0.00085263 60.931 0.000854541 60.931 0.000856452 60.931C0.000858363 60.931 0.000860274 60.931 0.000862185 60.931C0.000864096 60.931 0.000866007 60.931 0.000867918 60.931C0.000869829 60.931 0.00087174 60.931 0.000873651 60.931C0.000875562 60.931 0.000877474 60.931 0.000879385 60.931C0.000881296 60.931 0.000883207 60.931 0.000885118 60.931C0.000887029 60.931 0.00088894 60.931 0.000890851 60.931C0.000892762 60.931 0.000894673 60.931 0.000896584 60.931C0.000898495 60.931 0.000900406 60.931 0.000902317 60.931C0.000904228 60.931 0.000906139 60.931 0.000908051 60.931C0.000909962 60.931 0.000911873 60.931 0.000913784 60.931C0.000915695 60.931 0.000917606 60.931 0.000919517 60.931C0.000921428 60.931 0.000923339 60.931 0.00092525 60.931C0.000927161 60.931 0.000929072 60.931 0.000930983 60.931C0.000932894 60.931 0.000934805 60.931 0.000936717 60.931C0.000938628 60.931 0.000940539 60.931 0.00094245 60.931C0.000944361 60.931 0.000946272 60.931 0.000948183 60.931C0.000950094 60.931 0.000952005 60.931 0.000953916 60.931C0.000955827 60.931 0.000957738 60.931 0.000959649 60.931C0.00096156 60.931 0.000963471 60.931 0.000965383 60.931C0.000967294 60.931 0.000969205 60.931 0.000971116 60.931C0.000973027 60.931 0.000974938 60.931 0.000976849 60.931C0.00097876 60.931 0.000980671 60.931 0.000982582 60.931C0.000984493 60.931 0.000986404 60.931 0.000988315 60.931C0.000990227 60.931 0.000992138 60.931 0.000994049 60.931C0.00099596 60.931 0.000997871 60.931 0.000999782 60.931C0.00100169 60.931 0.0010036 60.931 0.00100552 60.931C0.00100743 60.931 0.00100934 60.931 0.00101125 60.931C0.00101316 60.931 0.00101507 60.931 0.00101698 60.931C0.00101889 60.931 0.0010208 60.931 0.00102271 60.931C0.00102463 60.931 0.00102654 60.931 0.00102845 60.931C0.00103036 60.931 0.00103227 60.931 0.00103418 60.931C0.00103609 60.931 0.001038 60.931 0.00103991 60.931C0.00104183 60.931 0.00104374 60.931 0.00104565 60.931C0.00104756 60.931 0.00104947 60.931 0.00105138 60.931C0.00105329 60.931 0.0010552 60.931 0.00105711 60.931C0.00105903 60.931 0.00106094 60.931 0.00106285 60.931C0.00106476 60.931 0.00106667 60.931 0.00106858 60.931C0.00107049 60.931 0.0010724 60.931 0.00107431 60.931C0.00107622 60.931 0.00107814 60.931 0.00108005 60.931C0.00108196 60.931 0.00108387 60.931 0.00108578 60.931C0.00108769 60.931 0.0010896 60.931 0.00109151 60.931C0.00109342 60.931 0.00109534 60.931 0.00109725 60.931C0.00109916 60.931 0.00110107 60.931 0.00110298 60.931C0.00110489 60.931 0.0011068 60.931 0.00110871 60.931C0.00111062 60.931 0.00111254 60.931 0.00111445 60.931C0.00111636 60.931 0.00111827 60.931 0.00112018 60.931C0.00112209 60.931 0.001124 60.931 0.00112591 60.931C0.00112782 60.931 0.00112973 60.931 0.00113165 60.931C0.00113356 60.931 0.00113547 60.931 0.00113738 60.931C0.00113929 60.931 0.0011412 60.931 0.00114311 60.931C0.00114502 60.931 0.00114693 60.931 0.00114885 60.931C0.00115076 60.931 0.00115267 60.931 0.00115458 60.931C0.00115649 60.931 0.0011584 60.931 0.00116031 60.931C0.00116222 60.931 0.00116413 60.931 0.00116604 60.931C0.00116796 60.931 0.00116987 60.931 0.00117178 60.931C0.00117369 60.931 0.0011756 60.931 0.00117751 60.931C0.00117942 60.931 0.00118133 60.931 0.00118324 60.931C0.00118516 60.931 0.00118707 60.931 0.00118898 60.931C0.00119089 60.931 0.0011928 60.931 0.00119471 60.931C0.00119662 60.931 0.00119853 60.931 0.00120044 60.931C0.00120236 60.931 0.00120427 60.931 0.00120618 60.931C0.00120809 60.931 0.00121 60.931 0.00121191 60.931C0.00121382 60.931 0.00121573 60.931 0.00121764 60.931C0.00121956 60.931 0.00122147 60.931 0.00122338 60.931C0.00122529 60.931 0.0012272 60.931 0.00122911 60.931C0.00123102 60.931 0.00123293 60.931 0.00123484 60.931C0.00123675 60.931 0.00123867 60.931 0.00124058 60.931C0.00124249 60.931 0.0012444 60.931 0.00124631 60.931C0.00124822 60.931 0.00125013 60.931 0.00125204 60.931C0.00125395 60.931 0.00125587 60.931 0.00125778 60.931C0.00125969 60.931 0.0012616 60.931 0.00126351 60.931C0.00126542 60.931 0.00126733 60.931 0.00126924 60.931C0.00127115 60.931 0.00127306 60.931 0.00127498 60.931C0.00127689 60.931 0.0012788 60.931 0.00128071 60.931C0.00128262 60.931 0.00128453 60.931 0.00128644 60.931C0.00128835 60.931 0.00129026 60.931 0.00129218 60.931C0.00129409 60.931 0.001296 60.931 0.00129791 60.931C0.00129982 60.931 0.00130173 60.931 0.00130364 60.931C0.00130555 60.931 0.00130746 60.931 0.00130938 60.931C0.00131129 60.931 0.0013132 60.931 0.00131511 60.931C0.00131702 60.931 0.00131893 60.931 0.00132084 60.931C0.00132275 60.931 0.00132466 60.931 0.00132658 60.931C0.00132849 60.931 0.0013304 60.931 0.00133231 60.931C0.00133422 60.931 0.00133613 60.931 0.00133804 60.931C0.00133995 60.931 0.00134186 60.931 0.00134377 60.931C0.00134569 60.931 0.0013476 60.931 0.00134951 60.931C0.00135142 60.931 0.00135333 60.931 0.00135524 60.931C0.00135715 60.931 0.00135906 60.931 0.00136097 60.931C0.00136289 60.931 0.0013648 60.931 0.00136671 60.931C0.00136862 60.931 0.00137053 60.931 0.00137244 60.931C0.00137435 60.931 0.00137626 60.931 0.00137817 60.931C0.00138009 60.931 0.001382 60.931 0.00138391 60.931C0.00138582 60.931 0.00138773 60.931 0.00138964 60.931C0.00139155 60.931 0.00139346 60.931 0.00139537 60.931C0.00139728 60.931 0.0013992 60.931 0.00140111 60.931C0.00140302 60.931 0.00140493 60.931 0.00140684 60.931C0.00140875 60.931 0.00141066 60.931 0.00141257 60.931C0.00141448 60.931 0.0014164 60.931 0.00141831 60.931C0.00142022 60.931 0.00142213 60.931 0.00142404 60.931C0.00142595 60.931 0.00142786 60.931 0.00142977 60.931C0.00143168 60.931 0.0014336 60.931 0.00143551 60.931C0.00143742 60.931 0.00143933 60.931 0.00144124 60.931C0.00144315 60.931 0.00144506 60.931 0.00144697 60.931C0.00144888 60.931 0.00145079 60.931 0.00145271 60.931C0.00145462 60.931 0.00145653 60.931 0.00145844 60.931C0.00146035 60.931 0.00146226 60.931 0.00146417 60.931C0.00146608 60.931 0.00146799 60.931 0.00146991 60.931C0.00147182 60.931 0.00147373 60.931 0.00147564 60.931C0.00147755 60.931 0.00147946 60.931 0.00148137 60.931C0.00148328 60.931 0.00148519 60.931 0.00148711 60.931C0.00148902 60.931 0.00149093 60.931 0.00149284 60.931C0.00149475 60.931 0.00149666 60.931 0.00149857 60.931C0.00150048 60.931 0.00150239 60.931 0.00150431 60.931C0.00150622 60.931 0.00150813 60.931 0.00151004 60.931C0.00151195 60.931 0.00151386 60.931 0.00151577 60.931C0.00151768 60.931 0.00151959 60.931 0.0015215 60.931C0.00152342 60.931 0.00152533 60.931 0.00152724 60.931C0.00152915 60.931 0.00153106 60.931 0.00153297 60.931C0.00153488 60.931 0.00153679 60.931 0.0015387 60.931C0.00154062 60.931 0.00154253 60.931 0.00154444 60.931C0.00154635 60.931 0.00154826 60.931 0.00155017 60.931C0.00155208 60.931 0.00155399 60.931 0.0015559 60.931C0.00155782 60.931 0.00155973 60.931 0.00156164 60.931C0.00156355 60.931 0.00156546 60.931 0.00156737 60.931C0.00156928 60.931 0.00157119 60.931 0.0015731 60.931C0.00157502 60.931 0.00157693 60.931 0.00157884 60.931C0.00158075 60.931 0.00158266 60.931 0.00158457 60.931C0.00158648 60.931 0.00158839 60.931 0.0015903 60.931C0.00159221 60.931 0.00159413 60.931 0.00159604 60.931C0.00159795 60.931 0.00159986 60.931 0.00160177 60.931C0.00160368 60.931 0.00160559 60.931 0.0016075 60.931C0.00160941 60.931 0.00161133 60.931 0.00161324 60.931C0.00161515 60.931 0.00161706 60.931 0.00161897 60.931C0.00162088 60.931 0.00162279 60.931 0.0016247 60.931C0.00162661 60.931 0.00162853 60.931 0.00163044 60.931C0.00163235 60.931 0.00163426 60.931 0.00163617 60.931C0.00163808 60.931 0.00163999 60.931 0.0016419 60.931C0.00164381 60.931 0.00164572 60.931 0.00164764 60.931C0.00164955 60.931 0.00165146 60.931 0.00165337 60.931C0.00165528 60.931 0.00165719 60.931 0.0016591 60.931C0.00166101 60.931 0.00166292 60.931 0.00166484 60.931C0.00166675 60.931 0.00166866 60.931 0.00167057 60.931C0.00167248 60.931 0.00167439 60.931 0.0016763 60.931C0.00167821 60.931 0.00168012 60.931 0.00168204 60.931C0.00168395 60.931 0.00168586 60.931 0.00168777 60.931C0.00168968 60.931 0.00169159 60.931 0.0016935 60.931C0.00169541 60.931 0.00169732 60.931 0.00169924 60.931C0.00170115 60.931 0.00170306 60.931 0.00170497 60.931C0.00170688 60.931 0.00170879 60.931 0.0017107 60.931C0.00171261 60.931 0.00171452 60.931 0.00171643 60.931C0.00171835 60.931 0.00172026 60.931 0.00172217 60.931C0.00172408 60.931 0.00172599 60.931 0.0017279 60.931C0.00172981 60.931 0.00173172 60.931 0.00173363 60.931C0.00173555 60.931 0.00173746 60.931 0.00173937 60.931C0.00174128 60.931 0.00174319 60.931 0.0017451 60.931C0.00174701 60.931 0.00174892 60.931 0.00175083 60.931C0.00175275 60.931 0.00175466 60.931 0.00175657 60.931C0.00175848 60.931 0.00176039 60.931 0.0017623 60.931C0.00176421 60.931 0.00176612 60.931 0.00176803 60.931C0.00176995 60.931 0.00177186 60.931 0.00177377 60.931C0.00177568 60.931 0.00177759 60.931 0.0017795 60.931C0.00178141 60.931 0.00178332 60.931 0.00178523 60.931C0.00178714 60.931 0.00178906 60.931 0.00179097 60.931C0.00179288 60.931 0.00179479 60.931 0.0017967 60.931C0.00179861 60.931 0.00180052 60.931 0.00180243 60.931C0.00180434 60.931 0.00180626 60.931 0.00180817 60.931C0.00181008 60.931 0.00181199 60.931 0.0018139 60.931C0.00181581 60.931 0.00181772 60.931 0.00181963 60.931C0.00182154 60.931 0.00182346 60.931 0.00182537 60.931C0.00182728 60.931 0.00182919 60.931 0.0018311 60.931C0.00183301 60.931 0.00183492 60.931 0.00183683 60.931C0.00183874 60.931 0.00184065 60.931 0.00184257 60.931C0.00184448 60.931 0.00184639 60.931 0.0018483 60.931C0.00185021 60.931 0.00185212 60.931 0.00185403 60.931C0.00185594 60.931 0.00185785 60.931 0.00185977 60.931C0.00186168 60.931 0.00186359 60.931 0.0018655 60.931C0.00186741 60.931 0.00186932 60.931 0.00187123 60.931C0.00187314 60.931 0.00187505 60.931 0.00187697 60.931C0.00187888 60.931 0.00188079 60.931 0.0018827 60.931C0.00188461 60.931 0.00188652 60.931 0.00188843 60.931C0.00189034 60.931 0.00189225 60.931 0.00189417 60.931C0.00189608 60.931 0.00189799 60.931 0.0018999 60.931C0.00190181 60.931 0.00190372 60.931 0.00190563 60.931C0.00190754 60.931 0.00190945 60.931 0.00191136 60.931C0.00191328 60.931 0.00191519 60.931 0.0019171 60.931C0.00191901 60.931 0.00192092 60.931 0.00192283 60.931C0.00192474 60.931 0.00192665 60.931 0.00192856 60.931C0.00193048 60.931 0.00193239 60.931 0.0019343 60.931C0.00193621 60.931 0.00193812 60.931 0.00194003 60.931C0.00194194 60.931 0.00194385 60.931 0.00194576 60.931C0.00194768 60.931 0.00194959 60.931 0.0019515 60.931C0.00195341 60.931 0.00195532 60.931 0.00195723 60.931C0.00195914 60.931 0.00196105 60.931 0.00196296 60.931C0.00196488 60.931 0.00196679 60.931 0.0019687 60.931C0.00197061 60.931 0.00197252 60.931 0.00197443 60.931C0.00197634 60.931 0.00197825 60.931 0.00198016 60.931C0.00198208 60.931 0.00198399 60.931 0.0019859 60.931C0.00198781 60.931 0.00198972 60.931 0.00199163 60.931C0.00199354 60.931 0.00199545 60.931 0.00199736 60.931C0.00199927 60.931 0.00200119 60.931 0.0020031 60.931C0.00200501 60.931 0.00200692 60.931 0.00200883 60.931C0.00201074 60.931 0.00201265 60.931 0.00201456 60.931C0.00201647 60.931 0.00201839 60.931 0.0020203 60.931C0.00202221 60.931 0.00202412 60.931 0.00202603 60.931C0.00202794 60.931 0.00202985 60.931 0.00203176 60.931C0.00203367 60.931 0.00203559 60.931 0.0020375 60.931C0.00203941 60.931 0.00204132 60.931 0.00204323 60.931C0.00204514 60.931 0.00204705 60.931 0.00204896 60.931C0.00205087 60.931 0.00205279 60.931 0.0020547 60.931C0.00205661 60.931 0.00205852 60.931 0.00206043 60.931C0.00206234 60.931 0.00206425 60.931 0.00206616 60.931C0.00206807 60.931 0.00206999 60.931 0.0020719 60.931C0.00207381 60.931 0.00207572 60.931 0.00207763 60.931C0.00207954 60.931 0.00208145 60.931 0.00208336 60.931C0.00208527 60.931 0.00208718 60.931 0.0020891 60.931C0.00209101 60.931 0.00209292 60.931 0.00209483 60.931C0.00209674 60.931 0.00209865 60.931 0.00210056 60.931C0.00210247 60.931 0.00210438 60.931 0.0021063 60.931C0.00210821 60.931 0.00211012 60.931 0.00211203 60.931C0.00211394 60.931 0.00211585 60.931 0.00211776 60.931C0.00211967 60.931 0.00212158 60.931 0.0021235 60.931C0.00212541 60.931 0.00212732 60.931 0.00212923 60.931C0.00213114 60.931 0.00213305 60.931 0.00213496 60.931C0.00213687 60.931 0.00213878 60.931 0.0021407 60.931C0.00214261 60.931 0.00214452 60.931 0.00214643 60.931C0.00214834 60.931 0.00215025 60.931 0.00215216 60.931C0.00215407 60.931 0.00215598 60.931 0.00215789 60.931C0.00215981 60.931 0.00216172 60.931 0.00216363 60.931C0.00216554 60.931 0.00216745 60.931 0.00216936 60.931C0.00217127 60.931 0.00217318 60.931 0.00217509 60.931C0.00217701 60.931 0.00217892 60.931 0.00218083 60.931C0.00218274 60.931 0.00218465 60.931 0.00218656 60.931C0.00218847 60.931 0.00219038 60.931 0.00219229 60.931C0.00219421 60.931 0.00219612 60.931 0.00219803 60.931C0.00219994 60.931 0.00220185 60.931 0.00220376 60.931C0.00220567 60.931 0.00220758 60.931 0.00220949 60.931C0.00221141 60.931 0.00221332 60.931 0.00221523 60.931C0.00221714 60.931 0.00221905 60.931 0.00222096 60.931C0.00222287 60.931 0.00222478 60.931 0.00222669 60.931C0.00222861 60.931 0.00223052 60.931 0.00223243 60.931C0.00223434 60.931 0.00223625 60.931 0.00223816 60.931C0.00224007 60.931 0.00224198 60.931 0.00224389 60.931C0.0022458 60.931 0.00224772 60.931 0.00224963 60.931C0.00225154 60.931 0.00225345 60.931 0.00225536 60.931C0.00225727 60.931 0.00225918 60.931 0.00226109 60.931C0.002263 60.931 0.00226492 60.931 0.00226683 60.931C0.00226874 60.931 0.00227065 60.931 0.00227256 60.931C0.00227447 60.931 0.00227638 60.931 0.00227829 60.931C0.0022802 60.931 0.00228212 60.931 0.00228403 60.931C0.00228594 60.931 0.00228785 60.931 0.00228976 60.931C0.00229167 60.931 0.00229358 60.931 0.00229549 60.931C0.0022974 60.931 0.00229932 60.931 0.00230123 60.931C0.00230314 60.931 0.00230505 60.931 0.00230696 60.931C0.00230887 60.931 0.00231078 60.931 0.00231269 60.931C0.0023146 60.931 0.00231652 60.931 0.00231843 60.931C0.00232034 60.931 0.00232225 60.931 0.00232416 60.931C0.00232607 60.931 0.00232798 60.931 0.00232989 60.931C0.0023318 60.931 0.00233372 60.931 0.00233563 60.931C0.00233754 60.931 0.00233945 60.931 0.00234136 60.931C0.00234327 60.931 0.00234518 60.931 0.00234709 60.931C0.002349 60.931 0.00235091 60.931 0.00235283 60.931C0.00235474 60.931 0.00235665 60.931 0.00235856 60.931C0.00236047 60.931 0.00236238 60.931 0.00236429 60.931C0.0023662 60.931 0.00236811 60.931 0.00237003 60.931C0.00237194 60.931 0.00237385 60.931 0.00237576 60.931C0.00237767 60.931 0.00237958 60.931 0.00238149 60.931C0.0023834 60.931 0.00238531 60.931 0.00238723 60.931C0.00238914 60.931 0.00239105 60.931 0.00239296 60.931C0.00239487 60.931 0.00239678 60.931 0.00239869 60.931C0.0024006 60.931 0.00240251 60.931 0.00240443 60.931C0.00240634 60.931 0.00240825 60.931 0.00241016 60.931C0.00241207 60.931 0.00241398 60.931 0.00241589 60.931C0.0024178 60.931 0.00241971 60.931 0.00242163 60.931C0.00242354 60.931 0.00242545 60.931 0.00242736 60.931C0.00242927 60.931 0.00243118 60.931 0.00243309 60.931C0.002435 60.931 0.00243691 60.931 0.00243882 60.931C0.00244074 60.931 0.00244265 60.931 0.00244456 60.931C0.00244647 60.931 0.00244838 60.931 0.00245029 60.931C0.0024522 60.931 0.00245411 60.931 0.00245602 60.931C0.00245794 60.931 0.00245985 60.931 0.00246176 60.931C0.00246367 60.931 0.00246558 60.931 0.00246749 60.931C0.0024694 60.931 0.00247131 60.931 0.00247322 60.931C0.00247514 60.931 0.00247705 60.931 0.00247896 60.931C0.00248087 60.931 0.00248278 60.931 0.00248469 60.931C0.0024866 60.931 0.00248851 60.931 0.00249042 60.931C0.00249234 60.931 0.00249425 60.931 0.00249616 60.931C0.00249807 60.931 0.00249998 60.931 0.00250189 60.931C0.0025038 60.931 0.00250571 60.931 0.00250762 60.931C0.00250954 60.931 0.00251145 60.931 0.00251336 60.931C0.00251527 60.931 0.00251718 60.931 0.00251909 60.931C0.002521 60.931 0.00252291 60.931 0.00252482 60.931C0.00252674 60.931 0.00252865 60.931 0.00253056 60.931C0.00253247 60.931 0.00253438 60.931 0.00253629 60.931C0.0025382 60.931 0.00254011 60.931 0.00254202 60.931C0.00254393 60.931 0.00254585 60.931 0.00254776 60.931C0.00254967 60.931 0.00255158 60.931 0.00255349 60.931C0.0025554 60.931 0.00255731 60.931 0.00255922 60.931C0.00256113 60.931 0.00256305 60.931 0.00256496 60.931C0.00256687 60.931 0.00256878 60.931 0.00257069 60.931C0.0025726 60.931 0.00257451 60.931 0.00257642 60.931C0.00257833 60.931 0.00258025 60.931 0.00258216 60.931C0.00258407 60.931 0.00258598 60.931 0.00258789 60.931C0.0025898 60.931 0.00259171 60.931 0.00259362 60.931C0.00259553 60.931 0.00259745 60.931 0.00259936 60.931C0.00260127 60.931 0.00260318 60.931 0.00260509 60.931C0.002607 60.931 0.00260891 60.931 0.00261082 60.931C0.00261273 60.931 0.00261465 60.931 0.00261656 60.931C0.00261847 60.931 0.00262038 60.931 0.00262229 60.931C0.0026242 60.931 0.00262611 60.931 0.00262802 60.931C0.00262993 60.931 0.00263185 60.931 0.00263376 60.931C0.00263567 60.931 0.00263758 60.931 0.00263949 60.931C0.0026414 60.931 0.00264331 60.931 0.00264522 60.931C0.00264713 60.931 0.00264905 60.931 0.00265096 60.931C0.00265287 60.931 0.00265478 60.931 0.00265669 60.931C0.0026586 60.931 0.00266051 60.931 0.00266242 60.931C0.00266433 60.931 0.00266624 60.931 0.00266816 60.931C0.00267007 60.931 0.00267198 60.931 0.00267389 60.931C0.0026758 60.931 0.00267771 60.931 0.00267962 60.931C0.00268153 60.931 0.00268344 60.931 0.00268536 60.931C0.00268727 60.931 0.00268918 60.931 0.00269109 60.931C0.002693 60.931 0.00269491 60.931 0.00269682 60.931C0.00269873 60.931 0.00270064 60.931 0.00270256 60.931C0.00270447 60.931 0.00270638 60.931 0.00270829 60.931C0.0027102 60.931 0.00271211 60.931 0.00271402 60.931C0.00271593 60.931 0.00271784 60.931 0.00271976 60.931C0.00272167 60.931 0.00272358 60.931 0.00272549 60.931C0.0027274 60.931 0.00272931 60.931 0.00273122 60.931C0.00273313 60.931 0.00273504 60.931 0.00273696 60.931C0.00273887 60.931 0.00274078 60.931 0.00274269 60.931C0.0027446 60.931 0.00274651 60.931 0.00274842 60.931C0.00275033 60.931 0.00275224 60.931 0.00275416 60.931C0.00275607 60.931 0.00275798 60.931 0.00275989 60.931C0.0027618 60.931 0.00276371 60.931 0.00276562 60.931C0.00276753 60.931 0.00276944 60.931 0.00277135 60.931C0.00277327 60.931 0.00277518 60.931 0.00277709 60.931C0.002779 60.931 0.00278091 60.931 0.00278282 60.931V58.931Z" fill="url(#paint0_linear)" mask="url(#path-1-inside-1)"/>
<mask id="mask0" mask-type="alpha" maskUnits="userSpaceOnUse" x="21" y="0" width="123" height="60">
<path d="M22.3995 6.54411C20.247 3.93528 22.104 0 25.4862 0H140C142.209 0 144 1.79086 144 4V56C144 58.2092 142.234 60 140.025 60C123.051 60 56.9612 60 44.8472 60C30.9236 60 31.7674 17.8977 26.2824 11.25C24.8629 9.52961 23.5564 7.9462 22.3995 6.54411Z" fill="#008BC5"/>
</mask>
<g mask="url(#mask0)">
<rect width="202.212" height="29.6018" transform="matrix(0.703734 0.710463 -0.316831 0.948482 24.726 -42.5001)" fill="url(#paint1_linear)"/>
<rect width="202.212" height="0.871127" transform="matrix(0.703734 0.710463 -0.316831 0.948482 30.7226 -43.0417)" fill="url(#paint2_linear)"/>
<rect width="202.212" height="1.61804" transform="matrix(0.703734 0.710463 -0.316831 0.948482 30.9593 -40.0001)" fill="url(#paint3_linear)"/>
</g>
<defs>
<linearGradient id="paint0_linear" x1="71.9999" y1="10.3448" x2="71.9999" y2="80.6897" gradientUnits="userSpaceOnUse">
<stop stop-color="#86AEFF"/>
<stop offset="1" stop-color="#86AEFF" stop-opacity="0"/>
</linearGradient>
<linearGradient id="paint1_linear" x1="194.746" y1="12.0739" x2="20.0395" y2="7.84567" gradientUnits="userSpaceOnUse">
<stop stop-color="white" stop-opacity="0.17"/>
<stop offset="1" stop-color="white" stop-opacity="0.1"/>
</linearGradient>
<linearGradient id="paint2_linear" x1="194.746" y1="0.355311" x2="90.466" y2="-85.4043" gradientUnits="userSpaceOnUse">
<stop stop-color="white" stop-opacity="0.17"/>
<stop offset="1" stop-color="white" stop-opacity="0.1"/>
</linearGradient>
<linearGradient id="paint3_linear" x1="194.746" y1="0.659956" x2="48.5901" y2="-64.0531" gradientUnits="userSpaceOnUse">
<stop stop-color="white" stop-opacity="0.17"/>
<stop offset="1" stop-color="white" stop-opacity="0.1"/>
</linearGradient>
</defs>
</svg>
