<svg width="30" height="30" viewBox="0 0 30 30" fill="none" xmlns="http://www.w3.org/2000/svg">
<circle cx="15" cy="15" r="14.25" fill="url(#paint0_radial)" stroke="#FFE65B" stroke-width="0.5"/>
<circle cx="14.9999" cy="15" r="8.13954" fill="#FFD597"/>
<path d="M25.559 7.94492C26.4711 9.30728 27.1265 10.856 27.456 12.5218L25.6309 12.8829C25.7661 13.5661 25.8373 14.2738 25.8373 15C25.8373 15.7261 25.7661 16.4338 25.6309 17.117L27.456 17.4781C27.1265 19.1439 26.4711 20.6926 25.559 22.055L24.013 21.02C23.2213 22.2026 22.2027 23.2212 21.0201 24.0129L22.0551 25.5589C20.6927 26.471 19.144 27.1264 17.4781 27.4559L17.1171 25.6308C16.4339 25.766 15.7262 25.8372 15 25.8372C14.2739 25.8372 13.5662 25.766 12.883 25.6308L12.5219 27.4559C10.8561 27.1264 9.30737 26.471 7.94501 25.5589L8.98003 24.0129C7.79741 23.2212 6.77882 22.2026 5.98708 21.02L4.4411 22.055C3.52902 20.6926 2.87361 19.1439 2.54406 17.4781L4.36915 17.117C4.23399 16.4338 4.16283 15.7261 4.16283 15C4.16283 14.2738 4.23399 13.5661 4.36915 12.8829L2.54406 12.5218C2.87362 10.856 3.52902 9.30728 4.4411 7.94493L5.98708 8.97994C6.77882 7.79732 7.79741 6.77873 8.98003 5.98699L7.94502 4.441C9.30737 3.52893 10.8561 2.87352 12.5219 2.54396L12.883 4.36906C13.5662 4.2339 14.2739 4.16274 15 4.16274C15.7262 4.16274 16.4339 4.2339 17.1171 4.36906L17.4781 2.54397C19.144 2.87352 20.6927 3.52893 22.0551 4.441L21.0201 5.98699C22.2027 6.77873 23.2213 7.79732 24.013 8.97994L25.559 7.94492Z" stroke="white" stroke-width="3.72093" stroke-dasharray="6.25 6.25"/>
<defs>
<radialGradient id="paint0_radial" cx="0" cy="0" r="1" gradientUnits="userSpaceOnUse" gradientTransform="translate(13.3358 13.4405) rotate(52.1805) scale(17.5114)">
<stop offset="0.484375" stop-color="#F49404"/>
<stop offset="0.833333" stop-color="#F5D838"/>
</radialGradient>
</defs>
</svg>
