<svg width="45" height="15" viewBox="0 0 45 15" fill="none" xmlns="http://www.w3.org/2000/svg">
<path d="M10.1304 5.97305C9.82883 5.97305 9.53037 5.89521 9.23505 5.73952C8.93972 5.57784 8.7041 5.26647 8.52816 4.80539L8.29253 4.22156H5.65349L4.89948 5.92814H4.47535L7.11439 0H7.39714L9.47068 4.80539C9.62776 5.15269 9.77542 5.39222 9.91366 5.52395C10.0519 5.6497 10.2498 5.72455 10.5074 5.7485V5.92814C10.3943 5.95808 10.2687 5.97305 10.1304 5.97305ZM5.79487 3.86228H8.10403L6.97301 1.25748L5.79487 3.86228Z" fill="#B95316"/>
<path d="M11.6645 1.21257V5.92814H11.2875V1.07784C11.2875 0.790419 11.2215 0.568862 11.0896 0.413174C10.9639 0.257485 10.7471 0.179641 10.4393 0.179641H10.345V0H10.9576C11.2467 0 11.4917 0.0449101 11.6928 0.13473C11.8939 0.224551 12.0729 0.359281 12.23 0.538922L15.5288 4.44611V0H15.9058V6.01796H15.7173L11.6645 1.21257Z" fill="#B95316"/>
<path d="M17.702 1.07784C17.702 0.772455 17.658 0.547904 17.57 0.404192C17.4821 0.254491 17.3061 0.179641 17.0422 0.179641H16.8537V0H19.3231C20.5421 0 21.4626 0.257485 22.0847 0.772455C22.713 1.28743 23.0272 2.00599 23.0272 2.92814C23.0272 3.52096 22.8953 4.04491 22.6313 4.5C22.3674 4.9491 21.9747 5.2994 21.4532 5.5509C20.938 5.80239 20.3096 5.92814 19.5682 5.92814H17.702V1.07784ZM19.5399 5.61377C20.0049 5.61377 20.4227 5.50599 20.7934 5.29042C21.1705 5.06886 21.4658 4.76048 21.6794 4.36527C21.893 3.96407 21.9999 3.49701 21.9999 2.96407C21.9999 2.44311 21.893 1.98204 21.6794 1.58084C21.4721 1.17964 21.1799 0.868264 20.8029 0.646707C20.4259 0.42515 19.9986 0.314371 19.521 0.314371C19.2194 0.314371 18.9053 0.362276 18.5785 0.458084V5.49701C18.9304 5.57485 19.2509 5.61377 19.5399 5.61377Z" fill="#B95316"/>
<path d="M29.0728 5.97305C28.7712 5.97305 28.4727 5.89521 28.1774 5.73952C27.8821 5.57784 27.6464 5.26647 27.4705 4.80539L27.2349 4.22156H24.5958L23.8418 5.92814H23.4177L26.0567 0H26.3395L28.413 4.80539C28.5701 5.15269 28.7178 5.39222 28.856 5.52395C28.9942 5.6497 29.1922 5.72455 29.4498 5.7485V5.92814C29.3367 5.95808 29.211 5.97305 29.0728 5.97305ZM24.7372 3.86228H27.0464L25.9153 1.25748L24.7372 3.86228Z" fill="#B95316"/>
<path d="M34.3392 6.01796C34.0062 6.01796 33.714 5.92515 33.4627 5.73952C33.2176 5.5479 32.9443 5.20659 32.6427 4.71557L31.7002 3.18862H31.0404V5.92814H30.1922V1.07784C30.1922 0.772455 30.1482 0.547904 30.0602 0.404192C29.9722 0.254491 29.7963 0.179641 29.5324 0.179641H29.3439V0H31.7944C32.3914 0 32.9317 0.113772 33.4156 0.341317C33.9057 0.562874 34.1507 0.988024 34.1507 1.61677C34.1507 2.41317 33.648 2.92216 32.6427 3.14371L33.6323 4.71557C33.8648 5.08683 34.0722 5.34731 34.2544 5.49701C34.4429 5.64072 34.6597 5.72455 34.9047 5.7485V5.92814C34.8482 5.9521 34.7665 5.97305 34.6597 5.99102C34.5591 6.00898 34.4523 6.01796 34.3392 6.01796ZM31.7473 2.87425C31.9421 2.87425 32.1526 2.82934 32.3788 2.73952C32.6113 2.6497 32.8061 2.50898 32.9632 2.31737C33.1265 2.12575 33.2082 1.89222 33.2082 1.61677C33.2082 1.32335 33.1265 1.08084 32.9632 0.889221C32.8061 0.691617 32.6113 0.547904 32.3788 0.458084C32.1526 0.362276 31.9421 0.314371 31.7473 0.314371C31.5274 0.314371 31.2918 0.344312 31.0404 0.404192V2.78443C31.2918 2.84431 31.5274 2.87425 31.7473 2.87425Z" fill="#B95316"/>
<path d="M11.1578 10.0599C11.1578 9.75449 11.1138 9.52994 11.0258 9.38623C10.9379 9.23653 10.7619 9.16168 10.498 9.16168H10.3095V8.98204H12.7601C13.4449 8.98204 14.0387 9.08982 14.5414 9.30539C15.0504 9.52096 15.3048 9.93713 15.3048 10.5539C15.3048 10.8353 15.2043 11.0898 15.0032 11.3174C14.8022 11.5449 14.4943 11.7246 14.0796 11.8563C14.6576 11.9461 15.0598 12.1108 15.286 12.3503C15.5185 12.5838 15.6347 12.8982 15.6347 13.2934C15.6347 13.8982 15.3834 14.3204 14.8807 14.5599C14.3843 14.7934 13.7717 14.9102 13.0428 14.9102H11.1578V10.0599ZM12.9014 11.7216C13.1591 11.7216 13.401 11.6766 13.6272 11.5868C13.8597 11.491 14.0482 11.3533 14.1927 11.1737C14.3372 10.988 14.4095 10.7665 14.4095 10.509C14.4095 10.2395 14.3246 10.015 14.155 9.83533C13.9853 9.6497 13.7685 9.51497 13.5046 9.43114C13.247 9.34132 12.9831 9.29641 12.7129 9.29641C12.493 9.29641 12.2574 9.32635 12.006 9.38623V11.7216H12.9014ZM12.9014 14.5958C13.4732 14.5958 13.9131 14.488 14.221 14.2725C14.5351 14.0569 14.6922 13.7455 14.6922 13.3383C14.6922 12.9311 14.5383 12.6198 14.2304 12.4042C13.9288 12.1886 13.4858 12.0808 12.9014 12.0808H12.006V14.4701C12.3076 14.5539 12.6061 14.5958 12.9014 14.5958Z" fill="#B95316"/>
<path d="M21.829 14.9551C21.5274 14.9551 21.229 14.8772 20.9336 14.7216C20.6383 14.5599 20.4027 14.2485 20.2268 13.7874L19.9911 13.2036H17.3521L16.5981 14.9102H16.1739L18.813 8.98204H19.0957L21.1693 13.7874C21.3264 14.1347 21.474 14.3743 21.6123 14.506C21.7505 14.6317 21.9484 14.7066 22.206 14.7305V14.9102C22.0929 14.9401 21.9673 14.9551 21.829 14.9551ZM17.4935 12.8443H19.8026L18.6716 10.2395L17.4935 12.8443Z" fill="#B95316"/>
<path d="M22.9484 10.0599C22.9484 9.75449 22.9044 9.52994 22.8165 9.38623C22.7285 9.23653 22.5526 9.16168 22.2887 9.16168H22.1002V8.98204H22.9484C23.1809 8.98204 23.3537 9.01198 23.4668 9.07186C23.5862 9.12575 23.671 9.22754 23.7213 9.37724C23.7715 9.52695 23.7967 9.75449 23.7967 10.0599V11.6766H26.6242V8.98204H27.4725V13.8323C27.4725 14.1377 27.5165 14.3653 27.6044 14.515C27.6924 14.6587 27.8683 14.7305 28.1322 14.7305H28.3207V14.9102H27.4725C27.24 14.9102 27.0641 14.8832 26.9447 14.8293C26.8316 14.7695 26.7499 14.6647 26.6996 14.515C26.6494 14.3653 26.6242 14.1377 26.6242 13.8323V12.0359H23.7967V14.9102H22.9484V10.0599Z" fill="#B95316"/>
<path d="M34.2824 14.9551C33.9808 14.9551 33.6823 14.8772 33.387 14.7216C33.0917 14.5599 32.856 14.2485 32.6801 13.7874L32.4445 13.2036H29.8054L29.0514 14.9102H28.6273L31.2663 8.98204H31.5491L33.6226 13.7874C33.7797 14.1347 33.9274 14.3743 34.0656 14.506C34.2038 14.6317 34.4018 14.7066 34.6594 14.7305V14.9102C34.5463 14.9401 34.4206 14.9551 34.2824 14.9551ZM29.9468 12.8443H32.256L31.125 10.2395L29.9468 12.8443Z" fill="#B95316"/>
<path d="M39.5488 15C39.2158 15 38.9236 14.9072 38.6723 14.7216C38.4272 14.5299 38.1539 14.1886 37.8523 13.6976L36.9098 12.1707H36.25V14.9102H35.4018V10.0599C35.4018 9.75449 35.3578 9.52994 35.2698 9.38623C35.1818 9.23653 35.0059 9.16168 34.742 9.16168H34.5535V8.98204H37.004C37.601 8.98204 38.1413 9.09581 38.6252 9.32335C39.1153 9.54491 39.3603 9.97006 39.3603 10.5988C39.3603 11.3952 38.8576 11.9042 37.8523 12.1257L38.8419 13.6976C39.0744 14.0689 39.2818 14.3293 39.464 14.479C39.6525 14.6228 39.8693 14.7066 40.1143 14.7305V14.9102C40.0578 14.9341 39.9761 14.9551 39.8693 14.9731C39.7687 14.991 39.6619 15 39.5488 15ZM36.9569 11.8563C37.1517 11.8563 37.3622 11.8114 37.5884 11.7216C37.8209 11.6317 38.0157 11.491 38.1728 11.2994C38.3361 11.1078 38.4178 10.8743 38.4178 10.5988C38.4178 10.3054 38.3361 10.0629 38.1728 9.87126C38.0157 9.67365 37.8209 9.52994 37.5884 9.44012C37.3622 9.34431 37.1517 9.29641 36.9569 9.29641C36.737 9.29641 36.5014 9.32635 36.25 9.38623V11.7665C36.5014 11.8263 36.737 11.8563 36.9569 11.8563Z" fill="#B95316"/>
<path d="M2.49553 4.02563C2.20389 4.02536 1.88909 3.86943 1.77267 3.64698C1.81901 3.9583 1.88852 4.42527 2.07503 4.55885L1.24676 4.59143C1.48018 4.48048 1.574 3.99142 1.60933 3.66906C1.43412 3.89124 1.16566 4.04662 0.827399 4.01296C0.372429 4.03477 0.0228699 3.64535 -1.52588e-05 3.21177C0.0121411 2.73376 0.42077 2.40063 0.934523 1.9342C1.56499 1.41229 1.68198 1.0789 1.68198 1.0789C1.68198 1.0789 1.80999 1.37917 2.43931 1.96895C2.9638 2.41412 3.3484 2.7591 3.34783 3.31495C3.32408 3.71513 2.96208 4.08165 2.49553 4.02563Z" fill="#B95316"/>
<path d="M44.2685 11.7564C43.9612 11.7623 43.8466 11.9335 43.8303 11.9179C43.8139 11.9023 44.1247 11.7313 44.1087 11.3108C44.0862 10.94 43.776 10.6438 43.3805 10.6528C42.9948 10.6649 42.6905 10.973 42.7032 11.3406C42.7093 11.758 43.0327 11.9234 43.0163 11.939C43 11.9545 42.8727 11.7893 42.5654 11.7953C42.1797 11.8074 41.8754 12.1155 41.8783 12.4799C41.8848 12.5236 41.8814 12.564 41.8977 12.6108C41.9661 12.913 42.2567 13.1407 42.6 13.1254C42.9857 13.1133 43.29 12.8052 43.2871 12.4408C43.2839 12.4189 43.2904 12.4003 43.2839 12.3878C43.31 12.4065 43.3558 12.4315 43.395 12.444C43.3718 12.7274 43.3155 13.4469 43.1584 13.615L43.7861 13.5969C43.6228 13.441 43.5189 12.712 43.4865 12.4316C43.5225 12.4223 43.565 12.3943 43.5945 12.3725C43.5977 12.3943 43.5911 12.413 43.5944 12.4348C43.6071 12.8024 43.9304 13.0924 44.3128 13.0896C44.6528 13.0837 44.9309 12.8504 44.9868 12.5358C44.9901 12.4953 44.9967 12.4455 45 12.405C44.9742 12.0436 44.6509 11.7536 44.2685 11.7564Z" fill="#B95316"/>
</svg>
